<?xml version="1.0"?>
<svg width="640" height="480" xmlns="http://www.w3.org/2000/svg" xmlns:svg="http://www.w3.org/2000/svg">
 <!-- Created with SVG-edit - https://github.com/SVG-Edit/svgedit-->

 <g class="layer">
  <title>Layer 1</title>
  <text fill="#007f00" font-family="serif" font-size="24" id="svg_1" stroke="#56ff56" stroke-dasharray="null" stroke-linecap="null" stroke-linejoin="null" stroke-width="0" text-anchor="middle" transform="matrix(15.0969 0 0 1.26322 -3606.17 -38.463)" x="250.5" xml:space="preserve" y="167.5"/>
  <text fill="#007f00" font-family="serif" font-size="24" id="svg_8" stroke="#000000" stroke-dasharray="null" stroke-linecap="null" stroke-linejoin="null" stroke-width="0" text-anchor="middle" transform="matrix(17.1151 0 0 5.86506 -1275.86 -1540.55)" x="84.5" xml:space="preserve" y="311.5"/>
  <text fill="#0025bc" font-family="serif" font-size="24" id="svg_10" stroke="#000000" stroke-dasharray="null" stroke-linecap="null" stroke-linejoin="null" stroke-width="0" text-anchor="middle" transform="translate(-12.7157 -103.825) scale(1.5633 1) translate(12.7157 103.825) translate(-12.7157 -103.825) scale(1 1) translate(12.7157 103.825) translate(-12.8127 -104.303) scale(1 1.12555) translate(12.8127 104.303) matrix(29.1878 0 0 19.2983 -9625.74 -7193.02)" x="339.789191" xml:space="preserve" y="388.82494">E</text>
  <text fill="#007f00" font-family="serif" font-size="24" id="svg_13" stroke="#000000" stroke-dasharray="null" stroke-linecap="null" stroke-linejoin="null" stroke-width="0" text-anchor="middle" transform="matrix(5.13296 0 0 5.43866 -1111.29 -734.875)" x="301.87201" xml:space="preserve" y="163.714272">A</text>
  <text fill="#ff007f" font-family="serif" font-size="24" id="svg_19" stroke="#000000" stroke-dasharray="null" stroke-linecap="null" stroke-linejoin="null" stroke-width="0" text-anchor="middle" transform="matrix(5.13962 0 0 5.06696 -1761.55 -1792.18)" x="425.785976" xml:space="preserve" y="419.473648">G</text>
  <text fill="#ff0000" font-family="serif" font-size="24" id="svg_20" stroke="#000000" stroke-dasharray="null" stroke-linecap="null" stroke-linejoin="null" stroke-width="0" text-anchor="middle" transform="matrix(5.66461 0 0 5.31282 -2209.79 -1408.14)" x="493.213754" xml:space="preserve" y="324.335907">B</text>
 </g>
</svg>