<?xml version="1.0"?>
<svg width="640" height="480" xmlns="http://www.w3.org/2000/svg" xmlns:svg="http://www.w3.org/2000/svg">
 <!-- Created with SVG-edit - https://github.com/SVG-Edit/svgedit-->

 <g class="layer">
  <title>Layer 1</title>
  <rect fill="#000000" height="480.000028" id="svg_27" stroke="#000000" stroke-dasharray="null" stroke-linecap="null" stroke-linejoin="null" stroke-width="0" width="639" x="-0.5" y="0.499972"/>
  <text fill="#007f00" font-family="serif" font-size="24" id="svg_1" stroke="#56ff56" stroke-dasharray="null" stroke-linecap="null" stroke-linejoin="null" stroke-width="0" text-anchor="middle" transform="matrix(15.0969 0 0 1.26322 -3606.17 -38.463)" x="250.5" xml:space="preserve" y="167.5"/>
  <text fill="#007f00" font-family="serif" font-size="24" id="svg_8" stroke="#000000" stroke-dasharray="null" stroke-linecap="null" stroke-linejoin="null" stroke-width="0" text-anchor="middle" transform="matrix(17.1151 0 0 5.86506 -1275.86 -1540.55)" x="84.5" xml:space="preserve" y="311.5"/>
  <text fill="#c2c0ce" font-family="serif" font-size="24" id="svg_10" stroke="#000000" stroke-dasharray="null" stroke-linecap="null" stroke-linejoin="null" stroke-width="0" text-anchor="middle" transform="translate(-12.7157 -103.825) scale(1.5633 1) translate(12.7157 103.825) translate(-12.7157 -103.825) scale(1 1) translate(12.7157 103.825) translate(-12.8127 -104.303) scale(1 1.12555) translate(12.8127 104.303) matrix(29.1878 0 0 19.2983 -9625.74 -7193.02)" x="336.370334" xml:space="preserve" y="392.277788">E</text>
  <text fill="#2a302a" font-family="serif" font-size="24" id="svg_13" stroke="#000000" stroke-dasharray="null" stroke-linecap="null" stroke-linejoin="null" stroke-width="0" text-anchor="middle" transform="matrix(5.13296 0 0 5.43866 -1111.29 -734.875)" x="246.543353" xml:space="preserve" y="169.598077">A</text>
  <text fill="#2a302a" font-family="serif" font-size="24" id="svg_19" stroke="#000000" stroke-dasharray="null" stroke-linecap="null" stroke-linejoin="null" stroke-width="0" text-anchor="middle" transform="matrix(5.13962 0 0 5.06696 -1761.55 -1792.18)" x="372.66924" xml:space="preserve" y="410.197871">G</text>
  <text fill="#2a302a" font-family="serif" font-size="24" id="svg_20" stroke="#000000" stroke-dasharray="null" stroke-linecap="null" stroke-linejoin="null" stroke-width="0" text-anchor="middle" transform="matrix(5.66461 0 0 5.31282 -2209.79 -1408.14)" x="417.656952" xml:space="preserve" y="339.393822">B</text>
  <path d="m340.5,129.5c1.77417,-0.878662 2.915741,-0.94989 3.626678,-0.97467c0.81073,-0.028259 1.726654,-0.050247 2.752502,-0.078003c1.140808,-0.030869 3.787537,-0.112274 5.300659,-0.168655c1.632233,-0.060822 3.372284,-0.132004 5.209503,-0.20401c1.923126,-0.075371 3.921234,-0.152184 5.98349,-0.221992c2.115082,-0.071594 6.460419,-0.190651 8.670166,-0.231171c2.22757,-0.040848 4.471313,-0.067368 6.729004,-0.085495c2.269623,-0.018219 4.549316,-0.02684 6.837006,-0.031502c2.293671,-0.004677 6.890991,-0.004501 9.190155,-0.004501c2.294159,0 4.578339,0 6.847504,0c2.249176,0 4.473328,0 6.667511,0c2.159149,0 6.352478,0 8.377167,0c1.972656,0 3.891327,0 5.753998,0c1.804657,0 3.549316,0 5.231995,0c1.618652,0 4.656006,0 6.073334,0c1.361328,0 2.680664,0 3.971985,0c1.277344,0 2.554688,0 3.846008,0c1.319336,0 4.097992,0 5.581512,0c1.544495,0 3.140991,0 4.780487,0c1.673492,0 3.372009,0 5.086517,0c1.721497,0 5.149475,0 6.840149,0c1.674683,0 3.337341,0 4.992004,0c1.650665,0 3.301331,0 4.955994,0c1.662659,0 5.028015,0 6.737,0c1.722992,0 3.45401,0 5.187012,0c1.729004,0 3.447998,0 5.151001,0c1.681,0 4.953003,0.00103 6.532654,-0.000336c1.537659,-0.001328 3.031372,-0.004318 4.479004,-0.020996c1.399719,-0.016129 2.749634,-0.042458 4.046997,-0.093002c1.244019,-0.04847 3.562347,-0.20652 4.631348,-0.328667c1.013763,-0.115837 1.970612,-0.260536 2.871002,-0.429001c0.852295,-0.15947 1.652832,-0.340622 2.403015,-0.536995c0.708496,-0.185471 1.991089,-0.584923 2.56897,-0.79084c0.542053,-0.193146 1.04248,-0.389755 1.5,-0.589493c0.422363,-0.18441 0.803284,-0.368584 1.140015,-0.553505c0.30304,-0.166405 0.786682,-0.482559 0.960815,-0.63633c0.151978,-0.134178 0.271362,-0.27607 0.352478,-0.427505c0.080872,-0.150894 0.131348,-0.3256 0.172546,-0.517494c0.046082,-0.214775 0.126282,-0.742714 0.182312,-1.061836c0.062439,-0.355576 0.13501,-0.742798 0.214478,-1.157997c0.084106,-0.439476 0.174438,-0.89872 0.268555,-1.374001c0.096558,-0.487389 0.295654,-1.481956 0.395325,-1.981499c0.098999,-0.49646 0.196472,-0.986847 0.28949,-1.468506c0.090637,-0.469337 0.17627,-0.923706 0.253479,-1.360497c0.073364,-0.415237 0.193298,-1.171135 0.235657,-1.506836c0.038757,-0.307022 0.066589,-0.588493 0.08551,-0.846001c0.017273,-0.235184 0.02533,-0.450668 0.031494,-0.647995l0.003174,-0.181335" fill="none" id="svg_22" stroke="#000000" stroke-dasharray="null" stroke-linecap="null" stroke-linejoin="null" stroke-width="0"/>
  <path d="m286.5,90.5c-286.5,-90.5 -286.5,-90.5 -286.5,-90.5l288.269348,91.351997l0.751495,0.648003l0.530975,0.442001" fill="none" id="svg_23" stroke="#000000" stroke-dasharray="null" stroke-linecap="null" stroke-linejoin="null" stroke-width="0"/>
 </g>
</svg>